# xmcd
#
# Track frame offsets:
#	150
#	17402
#	33602
#	62135
#	92242
#	113407
#	154007
#	195260
#	226892
#	254197
#	278585
#	295532
#
# Disc length: 4154 seconds
#
# Revision: 1
# Processed by: cddbd v1.4PL0 Copyright (c) Steve Scherf et al.
# Submitted via: audiograbber 1.82.01
#
DISCID=9710380c
DTITLE=Istanbul Blues Kumpanyasi - Sair Zamanlar
DYEAR=1999
DGENRE=Ethnic Blues
TTITLE0=Biskotin
TTITLE1=Derbeder
TTITLE2=Kirik Hayatlar
TTITLE3=Kurbagali Bodrum
TTITLE4=Cigdem Pilavi
TTITLE5=Huseyni Twist
TTITLE6=Sair Zamanlar
TTITLE7=Izmir'e Donus
TTITLE8=On the Road Again
TTITLE9=Durust Duman
TTITLE10=Fourty-Four
TTITLE11=Whiskey Headed Woman No.3
EXTD=second album of the band
EXTT0=
EXTT1=
EXTT2=
EXTT3=
EXTT4=
EXTT5=
EXTT6=
EXTT7=
EXTT8=
EXTT9=
EXTT10=
EXTT11=
PLAYORDER=
